<svg xmlns="http://www.w3.org/2000/svg" viewBox="0 0 32 32" fill="none">
  <rect width="32" height="32" rx="6" fill="#2D2D2D"/>

  <!-- Isometric M logomark -->
  <g transform="translate(4, 4)">
    <!-- Left pillar -->
    <path d="M4 20L4 6L7 4.5L7 18.5L4 20Z" fill="#FFFFFF"/>
    <path d="M7 4.5L10 6L10 20L7 18.5L7 4.5Z" fill="#E5E5E5"/>

    <!-- Right pillar -->
    <path d="M14 20L14 6L17 4.5L17 18.5L14 20Z" fill="#FFFFFF"/>
    <path d="M17 4.5L20 6L20 20L17 18.5L17 4.5Z" fill="#E5E5E5"/>

    <!-- Center V shape -->
    <path d="M10 6L12 10L10 9L10 6Z" fill="#FFFFFF"/>
    <path d="M14 6L12 10L14 9L14 6Z" fill="#E5E5E5"/>
    <path d="M10 9L12 10L12 13L10 12L10 9Z" fill="#CCCCCC"/>
    <path d="M14 9L12 10L12 13L14 12L14 9Z" fill="#BBBBBB"/>

    <!-- Top connectors -->
    <path d="M7 4.5L10 3L12 5L10 6L7 4.5Z" fill="#FFFFFF"/>
    <path d="M17 4.5L14 3L12 5L14 6L17 4.5Z" fill="#E5E5E5"/>
    <path d="M10 3L12 2L14 3L12 5L10 3Z" fill="#F5F5F5"/>
  </g>
</svg>
